<?xml version="1.0" encoding="iso-8859-1"?>
<!-- Generator: Adobe Illustrator 18.0.0, SVG Export Plug-In . SVG Version: 6.00 Build 0)  -->
<!DOCTYPE svg PUBLIC "-//W3C//DTD SVG 1.1//EN" "http://www.w3.org/Graphics/SVG/1.1/DTD/svg11.dtd">
<svg version="1.1" id="Capa_1" xmlns="http://www.w3.org/2000/svg" xmlns:xlink="http://www.w3.org/1999/xlink" x="0px" y="0px"
	 viewBox="0 0 155.566 155.566" style="enable-background:new 0 0 155.566 155.566;" xml:space="preserve">
<g>
	<path style="fill:black;" d="M148.066,15.923h-67.11c-3.175,0-6.006,1.999-7.067,4.991L48.545,92.303
		c-2.979-3.23-6.755-5.807-11.175-7.376c-3.026-1.075-6.179-1.62-9.369-1.62c-11.824,0-22.428,7.489-26.385,18.636
		c-5.166,14.55,2.468,30.589,17.016,35.754c3.026,1.075,6.179,1.62,9.369,1.62c11.825,0,22.429-7.489,26.386-18.636
		c0.001-0.004,0.002-0.008,0.004-0.012L76.93,57.18h51.309l-12.584,35.448c-2.979-3.229-6.755-5.806-11.175-7.375
		c-3.026-1.075-6.179-1.62-9.368-1.62c-11.824,0-22.428,7.49-26.386,18.637c-5.166,14.549,2.468,30.589,17.017,35.754
		c3.026,1.075,6.179,1.62,9.368,1.62c11.824,0,22.428-7.49,26.386-18.637c0.001-0.004,0.002-0.008,0.004-0.012l24.477-68.945
		c0.017-0.052,0.039-0.102,0.055-0.154l9.102-25.638c0.286-0.806,0.433-1.654,0.433-2.509v-0.326
		C155.566,19.28,152.209,15.923,148.066,15.923z M28.001,124.317c-1.475,0-2.938-0.254-4.35-0.755
		c-6.755-2.398-10.299-9.845-7.9-16.6c1.839-5.177,6.761-8.655,12.25-8.655c1.475,0,2.938,0.254,4.35,0.755
		c6.755,2.398,10.3,9.846,7.901,16.6C38.413,120.839,33.49,124.317,28.001,124.317z M82.255,42.18l3.997-11.258h51.309
		l-3.997,11.258H82.255z M95.111,124.643c-1.475,0-2.938-0.254-4.349-0.755c-6.755-2.398-10.3-9.846-7.901-16.6
		c1.839-5.178,6.762-8.656,12.251-8.656c1.475,0,2.938,0.254,4.349,0.755c6.755,2.398,10.3,9.846,7.901,16.6
		C105.523,121.165,100.6,124.643,95.111,124.643z"/>
</g>
<g>
</g>
<g>
</g>
<g>
</g>
<g>
</g>
<g>
</g>
<g>
</g>
<g>
</g>
<g>
</g>
<g>
</g>
<g>
</g>
<g>
</g>
<g>
</g>
<g>
</g>
<g>
</g>
<g>
</g>
</svg>
